<svg xmlns="http://www.w3.org/2000/svg" width="300" height="300">
	<g transform="translate(150, 150), rotate(-8)">
		
	<!-- tete -->
    <circle stroke="#FFD93B" fill="#FFCC4D" stroke-width="4" cx="0" cy="0" r="140"/>
    
	<!-- yeux -->
	<ellipse rx="40" ry="40" fill="white" stroke="white" stroke-width="2" cx="-50" cy="-30" />
	<ellipse rx="30" ry="30" fill="white" stroke="white" stroke-width="2" cx="50" cy="-30" />
	<ellipse cx="-70" cy="-30" rx="20" ry="20" fill="black" stroke="none" />
	<ellipse cx="60" cy="-30" rx="15" ry="15" fill="black" stroke="none" />

	<!-- bouche -->
	<g transform="translate(0, 40), rotate(0)">
    	<path d="M -35 0 L -35 5 C -35 25 35 25 35 5 L 35 0 C 35 -25 -35 -25 -35 0"
			stroke="black" stroke-width="10" fill="black" stroke-linecap="round" stroke-linejoin="round"/>
    	<path d="M -35 -5 C -25 -5 25 -5 35 -5  C 25 -25 -25 -25 -35 -5"
			stroke="white" stroke-width="1" fill="white" stroke-linecap="round" stroke-linejoin="round"/>
    	<!-- <path d="M -40 35 C -34 45 34 45 40 35 C 34 35 -34 35 -40 35"
			stroke="none" fill="red" stroke-linecap="round" stroke-linejoin="round"/> --> -->
	</g>
    <!-- <path d="M 100  210 Q 150 260 200 210" stroke="black" stroke-width="10" fill="none" stroke-linecap="round"/> -->
	</g>
</svg>