<svg xmlns="http://www.w3.org/2000/svg" width="300" height="300">
    <circle stroke="#FFD93B" fill="#FFCC4D" stroke-width="4" cx="150" cy="150" r="140"/>

    <path d="M 170 100 Q 200 50 230 100" stroke="black" stroke-width="10" fill="none" stroke-linecap="round"/>
    <path d="M 170 100 Q 200 70 230 100" stroke="black" stroke-width="10" fill="none" stroke-linecap="round"/>
	
    <path d="M 70  100 Q 100 50 130 100" stroke="black" stroke-width="10" fill="none" stroke-linecap="round"/>
    <path d="M 70  100 Q 100 70 130 100" stroke="black" stroke-width="10" fill="none" stroke-linecap="round"/>

    <path d="M 150 130 L 70 130 C 70 290 230 290 230 130 L 150 130" stroke="none" fill="#6d1809"/>
    <path d="M 95 220 C 120 260 180 260 200 220 Q 150 210 95 220" stroke="none" fill="#d63113"/>
    <path d="M 150 130 L 71 130 Q 70 150 110 150 L 190 150 Q 230 150 230 130 L 150 130" stroke="none" fill="white" />
    <path d="M 150 130 L 70 130 C 70 290 230 290 230 130 L 150 130" stroke="black" stroke-width="6" fill="none" stroke-linecap="round"/>
</svg>