<svg xmlns="http://www.w3.org/2000/svg" width="300" height="300">
	<g transform="translate(150, 160), rotate(8)">
		
	<!-- tete -->
    <ellipse rx="140" ry="130" stroke="#FFD93B" fill="#FFCC4D" stroke-width="4" cx="0" cy="0"/>
    
	<!-- yeux -->
	<ellipse rx="30" ry="30" fill="white" stroke="white" stroke-width="2" cx="-50" cy="-30" />
	<ellipse rx="40" ry="40" fill="white" stroke="white" stroke-width="2" cx="50" cy="-30" />
	<ellipse cx="-60" cy="-30" rx="15" ry="15" fill="black" stroke="none" />
	<ellipse cx="45" cy="-45" rx="20" ry="20" fill="black" stroke="none" />

	<!-- bouche -->
	<g transform="translate(0, 30), rotate(4)">
    	<path d="M -65 0 L -65 5 C -54 55 54 55 65 5 L 65 0 C 24 15 -24 15 -65 0"
			stroke="black" stroke-width="10" fill="black" stroke-linecap="round" stroke-linejoin="round"/>
    	<path d="M -60 0 L -60 15 C -34 35 34 35 60 15 L 60 0 C 34 16 -34 16 -60 0"
			stroke="" fill="white" stroke-linecap="round" stroke-linejoin="round"/>
		<g transform="translate(-4, 2), rotate(9)">
			<path d="M -38 35 Q -30 40 -34 50 C -45 125 30 125 30 50 Q 30 40 40 32 C 34 30 -34 30 -38 35"
				stroke="#b1400c" stroke-width="1" fill="red" stroke-linecap="round" stroke-linejoin="round"/>
			<path d="M -2 32 L -4 80 L 2 32" stroke="none" fill="#b1400c" />
		</g>
	</g>
    <!-- <path d="M 100  210 Q 150 260 200 210" stroke="black" stroke-width="10" fill="none" stroke-linecap="round"/> -->
	</g>
</svg>